<svg xmlns="http://www.w3.org/2000/svg" xmlns:xlink="http://www.w3.org/1999/xlink" width="500" zoomAndPan="magnify" viewBox="0 0 375 374.999991" height="500" preserveAspectRatio="xMidYMid meet" version="1.0"><defs><g/><clipPath id="e40cbf1ee0"><path d="M 275 56 L 371 56 L 371 175 L 275 175 Z M 275 56 " clip-rule="nonzero"/></clipPath><clipPath id="b3580af9e0"><path d="M -159.824219 79.929688 L 419.882812 -22.855469 L 462.441406 217.148438 L -117.269531 319.9375 Z M -159.824219 79.929688 " clip-rule="nonzero"/></clipPath><clipPath id="c522c49afc"><path d="M -159.824219 79.929688 L 419.882812 -22.855469 L 462.441406 217.148438 L -117.269531 319.9375 Z M -159.824219 79.929688 " clip-rule="nonzero"/></clipPath><clipPath id="d69a681175"><path d="M 103 100 L 208 100 L 208 182 L 103 182 Z M 103 100 " clip-rule="nonzero"/></clipPath><clipPath id="51b53104e4"><path d="M -159.824219 79.929688 L 419.882812 -22.855469 L 462.441406 217.148438 L -117.269531 319.9375 Z M -159.824219 79.929688 " clip-rule="nonzero"/></clipPath><clipPath id="6b5f5a4c3d"><path d="M -159.824219 79.929688 L 419.882812 -22.855469 L 462.441406 217.148438 L -117.269531 319.9375 Z M -159.824219 79.929688 " clip-rule="nonzero"/></clipPath><clipPath id="0d5c5b0461"><path d="M 0 120 L 36 120 L 36 311 L 0 311 Z M 0 120 " clip-rule="nonzero"/></clipPath><clipPath id="b924551be3"><path d="M -159.824219 79.929688 L 419.882812 -22.855469 L 462.441406 217.148438 L -117.269531 319.9375 Z M -159.824219 79.929688 " clip-rule="nonzero"/></clipPath><clipPath id="e36b95b1ca"><path d="M -159.824219 79.929688 L 419.882812 -22.855469 L 462.441406 217.148438 L -117.269531 319.9375 Z M -159.824219 79.929688 " clip-rule="nonzero"/></clipPath><clipPath id="94aa9739a7"><path d="M 21 63 L 108 63 L 108 151 L 21 151 Z M 21 63 " clip-rule="nonzero"/></clipPath><clipPath id="b4c547b8e4"><path d="M -159.824219 79.929688 L 419.882812 -22.855469 L 462.441406 217.148438 L -117.269531 319.9375 Z M -159.824219 79.929688 " clip-rule="nonzero"/></clipPath><clipPath id="9873d30116"><path d="M -159.824219 79.929688 L 419.882812 -22.855469 L 462.441406 217.148438 L -117.269531 319.9375 Z M -159.824219 79.929688 " clip-rule="nonzero"/></clipPath><clipPath id="b8533e475d"><path d="M 200 140 L 287 140 L 287 227 L 200 227 Z M 200 140 " clip-rule="nonzero"/></clipPath><clipPath id="f71d890460"><path d="M -159.824219 79.929688 L 419.882812 -22.855469 L 462.441406 217.148438 L -117.269531 319.9375 Z M -159.824219 79.929688 " clip-rule="nonzero"/></clipPath><clipPath id="a6ada44cce"><path d="M -159.824219 79.929688 L 419.882812 -22.855469 L 462.441406 217.148438 L -117.269531 319.9375 Z M -159.824219 79.929688 " clip-rule="nonzero"/></clipPath><clipPath id="b404e27aa5"><path d="M 341 0 L 375 0 L 375 71 L 341 71 Z M 341 0 " clip-rule="nonzero"/></clipPath><clipPath id="478c9700d7"><path d="M -159.824219 79.929688 L 419.882812 -22.855469 L 462.441406 217.148438 L -117.269531 319.9375 Z M -159.824219 79.929688 " clip-rule="nonzero"/></clipPath><clipPath id="bab3cc26bc"><path d="M -159.824219 79.929688 L 419.882812 -22.855469 L 462.441406 217.148438 L -117.269531 319.9375 Z M -159.824219 79.929688 " clip-rule="nonzero"/></clipPath></defs><rect x="-37.5" width="450" fill="#ffffff" y="-37.499999" height="449.999989" fill-opacity="1"/><rect x="-37.5" width="450" fill="#000000" y="-37.499999" height="449.999989" fill-opacity="1"/><g clip-path="url(#e40cbf1ee0)"><g clip-path="url(#b3580af9e0)"><g clip-path="url(#c522c49afc)"><path fill="#ffffff" d="M 354.792969 56.667969 C 329.089844 88.933594 301.078125 124.5 275.371094 156.761719 C 275.390625 156.785156 275.410156 156.808594 275.429688 156.832031 C 275.816406 157.203125 276.195312 157.613281 276.546875 158.089844 C 276.9375 158.550781 277.257812 159.019531 277.539062 159.496094 C 280.683594 164.09375 282.960938 169.242188 284.3125 174.617188 C 312.191406 139.613281 342.386719 101.3125 370.265625 66.3125 C 364.515625 64.160156 359.207031 60.871094 354.792969 56.667969 Z M 354.792969 56.667969 " fill-opacity="1" fill-rule="nonzero"/></g></g></g><g clip-path="url(#d69a681175)"><g clip-path="url(#51b53104e4)"><g clip-path="url(#6b5f5a4c3d)"><path fill="#ffffff" d="M 105.707031 100.996094 C 106.414062 107.714844 105.492188 114.460938 103.210938 120.6875 C 135.230469 140.191406 170.558594 162 202.582031 181.503906 C 202.945312 175.1875 204.628906 168.980469 207.699219 163.414062 C 174.800781 143.378906 138.601562 121.035156 105.707031 100.996094 Z M 105.707031 100.996094 " fill-opacity="1" fill-rule="nonzero"/></g></g></g><g clip-path="url(#0d5c5b0461)"><g clip-path="url(#b924551be3)"><g clip-path="url(#e36b95b1ca)"><path fill="#ffffff" d="M -61.519531 229.769531 C -69.417969 225.726562 -78.710938 224.019531 -88.714844 225.242188 C -113.039062 228.214844 -126.582031 253.105469 -123.839844 275.507812 C -120.863281 299.839844 -95.976562 313.378906 -73.574219 310.636719 C -50.222656 307.785156 -36.855469 284.738281 -38.238281 263.082031 C -38.1875 262.234375 -38.21875 261.351562 -38.445312 260.371094 C -38.5625 259.394531 -38.835938 258.566406 -39.164062 257.796875 C -40.96875 251.503906 -43.796875 245.925781 -47.503906 241.257812 C -20.148438 206.929688 8.355469 170.949219 35.707031 136.621094 C 31.035156 132.355469 27.304688 127.070312 25.003906 120.984375 C -3.453125 156.691406 -33.066406 194.058594 -61.519531 229.769531 Z M -105.96875 272.339844 C -113.371094 240.628906 -63.683594 231.988281 -56.320312 263.535156 C -52.367188 295.839844 -98.570312 304.03125 -105.96875 272.339844 Z M -105.96875 272.339844 " fill-opacity="1" fill-rule="nonzero"/></g></g></g><g clip-path="url(#94aa9739a7)"><g clip-path="url(#b4c547b8e4)"><g clip-path="url(#9873d30116)"><path fill="#ffffff" d="M 105.722656 94.125 C 105.621094 93.800781 105.503906 93.480469 105.382812 93.167969 C 105.28125 92.71875 105.15625 92.269531 104.980469 91.808594 C 97.128906 71.039062 74.550781 59.429688 53.089844 65.121094 C 31.261719 70.910156 18.480469 92.644531 21.730469 114.503906 C 22.152344 117.347656 22.878906 120.054688 23.851562 122.628906 C 26.148438 128.71875 29.878906 134 34.550781 138.265625 C 44.898438 147.714844 59.84375 152.160156 74.03125 149.207031 C 88.816406 146.128906 99.964844 135.1875 104.863281 121.839844 C 107.148438 115.617188 108.066406 108.871094 107.359375 102.152344 C 107.074219 99.457031 106.546875 96.773438 105.722656 94.125 Z M 70.859375 131.332031 C 56.308594 135.285156 42.835938 125.382812 39.601562 111.335938 C 36.695312 98.691406 45.515625 87.214844 56.765625 82.84375 C 69.960938 77.722656 83.253906 86.851562 88.21875 98.691406 C 91.875 112.648438 85.664062 127.316406 70.859375 131.332031 Z M 70.859375 131.332031 " fill-opacity="1" fill-rule="nonzero"/></g></g></g><g clip-path="url(#b8533e475d)"><g clip-path="url(#f71d890460)"><g clip-path="url(#a6ada44cce)"><path fill="#ffffff" d="M 277.703125 156.4375 C 277.34375 155.960938 276.96875 155.546875 276.585938 155.179688 C 276.5625 155.152344 276.546875 155.132812 276.527344 155.109375 C 260.652344 137.71875 234.90625 135.785156 216.226562 150.328125 C 211.90625 153.691406 208.527344 157.761719 206.046875 162.257812 C 202.976562 167.824219 201.292969 174.03125 200.929688 180.351562 C 200.28125 191.652344 203.863281 203.304688 211.3125 212.210938 C 226.082031 229.875 251.796875 230.785156 269.945312 218.359375 C 285.03125 208.03125 289.640625 189.492188 285.472656 172.957031 C 284.121094 167.589844 281.84375 162.4375 278.699219 157.839844 C 278.410156 157.367188 278.089844 156.894531 277.703125 156.4375 Z M 259.667969 203.382812 C 250.175781 211.546875 235.167969 210.277344 226.386719 201.792969 C 216.199219 191.953125 216.484375 175.496094 226.375 165.582031 C 237.214844 154.714844 254.425781 157.035156 263.867188 168.191406 C 272.253906 179.476562 270.132812 194.371094 259.667969 203.382812 Z M 259.667969 203.382812 " fill-opacity="1" fill-rule="nonzero"/></g></g></g><g clip-path="url(#b404e27aa5)"><g clip-path="url(#478c9700d7)"><g clip-path="url(#bab3cc26bc)"><path fill="#ffffff" d="M 426.574219 18.210938 C 421.96875 -4.109375 400.035156 -17.703125 378.195312 -15.195312 C 377.710938 -15.167969 377.21875 -15.113281 376.703125 -15.007812 C 376.183594 -14.929688 375.707031 -14.8125 375.25 -14.675781 C 353.03125 -9.378906 339.1875 10.570312 341.28125 33.335938 C 342.199219 43.296875 346.867188 51.878906 353.636719 58.320312 C 358.046875 62.527344 363.359375 65.808594 369.113281 67.964844 C 377.476562 71.101562 386.777344 71.84375 395.609375 69.5 C 417.992188 63.566406 431.183594 40.550781 426.574219 18.210938 Z M 391.933594 51.777344 C 376.578125 57.742188 361.34375 44.847656 359.160156 30.164062 C 357.210938 17.035156 367.597656 5.394531 379.871094 2.863281 C 392.820312 0.9375 405.292969 8.519531 408.699219 21.382812 C 412.238281 34.714844 404.210938 47.007812 391.933594 51.777344 Z M 391.933594 51.777344 " fill-opacity="1" fill-rule="nonzero"/></g></g></g><g fill="#ffffff" fill-opacity="1"><g transform="translate(45.64135, 333.722857)"><g><path d="M 1.015625 -83.90625 L 1.015625 -104.875 L 74.75 -104.875 L 74.75 -83.90625 L 49.828125 -83.90625 L 49.828125 0 L 25.9375 0 L 25.9375 -83.90625 Z M 1.015625 -83.90625 "/></g></g></g><g fill="#ffffff" fill-opacity="1"><g transform="translate(121.388115, 333.722857)"><g><path d="M 9.78125 -101.5625 C 12.414062 -104.195312 15.550781 -105.515625 19.1875 -105.515625 C 22.832031 -105.515625 25.96875 -104.195312 28.59375 -101.5625 C 31.226562 -98.9375 32.546875 -95.800781 32.546875 -92.15625 C 32.546875 -88.519531 31.226562 -85.382812 28.59375 -82.75 C 25.96875 -80.125 22.832031 -78.8125 19.1875 -78.8125 C 15.550781 -78.8125 12.414062 -80.125 9.78125 -82.75 C 7.15625 -85.382812 5.84375 -88.519531 5.84375 -92.15625 C 5.84375 -95.800781 7.15625 -98.9375 9.78125 -101.5625 Z M 7.625 -65.21875 L 7.625 0 L 30.125 0 L 30.125 -65.21875 Z M 7.625 -65.21875 "/></g></g></g><g fill="#ffffff" fill-opacity="1"><g transform="translate(159.769881, 333.722857)"><g><path d="M 7.625 0 L 7.625 -65.21875 L 30.125 -65.21875 L 30.125 -58.34375 L 30.390625 -58.34375 C 36.234375 -64.195312 42.457031 -67.125 49.0625 -67.125 C 53.8125 -67.125 58.257812 -66.148438 62.40625 -64.203125 C 66.5625 -62.253906 69.703125 -59.242188 71.828125 -55.171875 C 78.429688 -63.140625 85.632812 -67.125 93.4375 -67.125 C 100.382812 -67.125 106.359375 -65.171875 111.359375 -61.265625 C 116.359375 -57.367188 118.859375 -51.269531 118.859375 -42.96875 L 118.859375 0 L 96.359375 0 L 96.359375 -36.859375 C 96.359375 -40.335938 95.40625 -43.238281 93.5 -45.5625 C 91.59375 -47.894531 88.734375 -49.0625 84.921875 -49.0625 C 81.617188 -49.0625 79.097656 -48.066406 77.359375 -46.078125 C 75.617188 -44.085938 74.664062 -41.695312 74.5 -38.90625 L 74.5 0 L 52 0 L 52 -36.859375 C 52 -40.335938 51.046875 -43.238281 49.140625 -45.5625 C 47.234375 -47.894531 44.367188 -49.0625 40.546875 -49.0625 C 37.078125 -49.0625 34.472656 -47.984375 32.734375 -45.828125 C 30.992188 -43.671875 30.125 -41.109375 30.125 -38.140625 L 30.125 0 Z M 7.625 0 "/></g></g></g><g fill="#ffffff" fill-opacity="1"><g transform="translate(284.955387, 333.722857)"><g><path d="M 22.125 -27.203125 C 26.1875 -27.203125 29.632812 -25.78125 32.46875 -22.9375 C 35.3125 -20.101562 36.734375 -16.648438 36.734375 -12.578125 C 36.734375 -8.597656 35.3125 -5.1875 32.46875 -2.34375 C 29.632812 0.488281 26.1875 1.90625 22.125 1.90625 C 18.132812 1.90625 14.71875 0.488281 11.875 -2.34375 C 9.039062 -5.1875 7.625 -8.597656 7.625 -12.578125 C 7.625 -16.648438 9.039062 -20.101562 11.875 -22.9375 C 14.71875 -25.78125 18.132812 -27.203125 22.125 -27.203125 Z M 22.125 -27.203125 "/></g></g></g></svg>